<svg width="40" height="40" viewBox="0 0 40 40" fill="none" xmlns="http://www.w3.org/2000/svg">
    <path cx="32" cy="32" r="32" fill="#E0E7FF" d="M40 20A20 20 0 0 1 20 40A20 20 0 0 1 0 20A20 20 0 0 1 40 20z"/>
    <path fill-rule="evenodd" clip-rule="evenodd"
          d="M20.907 32.214c0.914 0.187 1.372 0.28 1.73 -0.013s0.358 -0.796 0.358 -1.803v-11.456c0 -0.919 0 -1.379 -0.285 -1.665 -0.286 -0.286 -0.746 -0.286 -1.665 -0.286H9.394c-1.021 0 -1.531 0 -1.824 0.365 -0.293 0.364 -0.191 0.826 0.014 1.749a17.106 17.106 0 0 0 4.626 8.424 17.106 17.106 0 0 0 8.697 4.684"
          fill="#476CEF"/>
    <path fill-rule="evenodd" clip-rule="evenodd"
          d="M29.941 23.455c0 1.007 0 1.511 -0.358 1.803 -0.359 0.293 -0.816 0.2 -1.731 0.013a17.106 17.106 0 0 1 -8.697 -4.684 17.106 17.106 0 0 1 -4.626 -8.424c-0.204 -0.923 -0.306 -1.385 -0.014 -1.75 0.293 -0.364 0.803 -0.364 1.824 -0.364h11.652c0.919 0 1.379 0 1.664 0.285 0.286 0.286 0.286 0.746 0.286 1.665z"
          fill="#94ABFF"/>
    <path fill-rule="evenodd" clip-rule="evenodd"
          d="M22.995 23.481v-4.54c0 -0.919 0 -1.379 -0.286 -1.664s-0.745 -0.286 -1.664 -0.286h-4.647a17.188 17.188 0 0 0 2.756 3.594 17.188 17.188 0 0 0 3.841 2.896"
          fill="#234CDA"/>
</svg>